{
  "asset": {
    "version": "2.0",
    "generator": "Sketchup glTF Exporter v1.2.6 by Centaur"
  },
  "scene": 0,
  "scenes": [
    {
      "nodes": [
        0
      ]
    }
  ],
  "samplers": [
    {
    }
  ],
  "nodes": [
    {
      "name": "root",
      "children": [
        1
      ],
      "mesh": 1
    },
    {
      "mesh": 0
    }
  ],
  "materials": [
    {
      "pbrMetallicRoughness": {
        "baseColorFactor": [
          0.2176,
          0.2176,
          0.2176,
          1.0
        ],
        "metallicFactor": 0.1,
        "roughnessFactor": 0.9
      },
      "name": "default material",
      "doubleSided": true
    },
    {
      "pbrMetallicRoughness": {
        "baseColorTexture": {
          "index": 0
        },
        "metallicFactor": 0.1,
        "roughnessFactor": 0.9
      },
      "name": "Polished Concrete Old"
    }
  ],
  "images": [
    {
      "bufferView": 0,
      "mimeType": "image/jpeg"
    }
  ],
  "textures": [
    {
      "source": 0,
      "sampler": 0
    }
  ],
  "meshes": [
    {
      "primitives": [
        {
          "attributes": {
            "POSITION": 2,
            "NORMAL": 3,
            "TEXCOORD_0": 4
          },
          "indices": 5,
          "mode": 4,
          "material": 1
        }
      ]
    },
    {
      "primitives": [
        {
          "attributes": {
            "POSITION": 0,
            "NORMAL": 1
          },
          "indices": 6,
          "mode": 4,
          "material": 0
        }
      ]
    }
  ],
  "accessors": [
    {
      "bufferView": 1,
      "componentType": 5126,
      "count": 1211,
      "type": "VEC3",
      "min": [
        7.6924648166439695,
        -0.12000000000000088,
        -28.1755542491068
      ],
      "max": [
        23.47246481664397,
        2.3999999999999995,
        -10.306375463423496
      ]
    },
    {
      "bufferView": 2,
      "componentType": 5126,
      "count": 1211,
      "type": "VEC3",
      "min": [
        -1.0,
        -1.0,
        -1.0
      ],
      "max": [
        1.0,
        6.123233995736766e-17,
        1.0
      ]
    },
    {
      "bufferView": 3,
      "componentType": 5126,
      "count": 29,
      "type": "VEC3",
      "min": [
        7.6924648166439695,
        -1.7252551162685625e-15,
        -28.175554249106796
      ],
      "max": [
        23.47246481664397,
        -6.310834861046202e-16,
        -10.306375463423496
      ]
    },
    {
      "bufferView": 4,
      "componentType": 5126,
      "count": 29,
      "type": "VEC3",
      "min": [
        7.498798913309288e-33,
        1.0,
        -6.123233995736766e-17
      ],
      "max": [
        7.498798913309288e-33,
        1.0,
        -6.123233995736766e-17
      ]
    },
    {
      "bufferView": 5,
      "componentType": 5126,
      "count": 29,
      "type": "VEC2",
      "min": [
        0.0,
        -702.5109758143033
      ],
      "max": [
        621.2598425196851,
        1.0
      ]
    },
    {
      "bufferView": 7,
      "componentType": 5121,
      "count": 87,
      "type": "SCALAR"
    },
    {
      "bufferView": 6,
      "componentType": 5123,
      "count": 2379,
      "type": "SCALAR"
    }
  ],
  "bufferViews": [
    {
      "buffer": 0,
      "byteLength": 35556
    },
    {
      "buffer": 0,
      "byteOffset": 35556,
      "byteLength": 14532,
      "target": 34962,
      "byteStride": 12
    },
    {
      "buffer": 0,
      "byteOffset": 50088,
      "byteLength": 14532,
      "target": 34962,
      "byteStride": 12
    },
    {
      "buffer": 0,
      "byteOffset": 64620,
      "byteLength": 348,
      "target": 34962,
      "byteStride": 12
    },
    {
      "buffer": 0,
      "byteOffset": 64968,
      "byteLength": 348,
      "target": 34962,
      "byteStride": 12
    },
    {
      "buffer": 0,
      "byteOffset": 65320,
      "byteLength": 232,
      "target": 34962,
      "byteStride": 8
    },
    {
      "buffer": 0,
      "byteOffset": 65552,
      "byteLength": 4758,
      "target": 34963
    },
    {
      "buffer": 0,
      "byteOffset": 70310,
      "byteLength": 87,
      "target": 34963
    }
  ],
  "buffers": [
    {
      "uri": "data:application/octet-stream;base64,",
      "byteLength": 70397
    }
  ]
}